<mxfile host="app.diagrams.net" modified="2021-09-18T01:00:53.070Z" agent="5.0 (X11; Linux x86_64) AppleWebKit/537.36 (KHTML, like Gecko) Chrome/93.0.4577.82 Safari/537.36" etag="PP1fbEA7jTM_VYf4h9Zu" version="15.2.7" type="github">
  <diagram id="R2lEEEUBdFMjLlhIrx00" name="Page-1">
    <mxGraphModel dx="1095" dy="498" grid="1" gridSize="10" guides="1" tooltips="1" connect="1" arrows="1" fold="1" page="1" pageScale="1" pageWidth="850" pageHeight="1100" math="0" shadow="0" extFonts="Permanent Marker^https://fonts.googleapis.com/css?family=Permanent+Marker">
      <root>
        <mxCell id="0" />
        <mxCell id="1" parent="0" />
        <mxCell id="IRb0_hJA0BpMfaac0e4a-1" value="Entity" style="whiteSpace=wrap;html=1;align=center;" vertex="1" parent="1">
          <mxGeometry x="95" y="10" width="100" height="40" as="geometry" />
        </mxCell>
        <mxCell id="IRb0_hJA0BpMfaac0e4a-2" value="Relationship" style="shape=rhombus;perimeter=rhombusPerimeter;whiteSpace=wrap;html=1;align=center;" vertex="1" parent="1">
          <mxGeometry x="70" y="100" width="80" height="50" as="geometry" />
        </mxCell>
        <mxCell id="IRb0_hJA0BpMfaac0e4a-3" value="Attribute" style="ellipse;whiteSpace=wrap;html=1;align=left;spacingLeft=20;" vertex="1" parent="1">
          <mxGeometry x="175" y="345" width="20" height="15" as="geometry" />
        </mxCell>
        <mxCell id="IRb0_hJA0BpMfaac0e4a-5" value="" style="endArrow=none;html=1;rounded=0;" edge="1" parent="1">
          <mxGeometry relative="1" as="geometry">
            <mxPoint x="210" y="230" as="sourcePoint" />
            <mxPoint x="50" y="230" as="targetPoint" />
          </mxGeometry>
        </mxCell>
        <mxCell id="IRb0_hJA0BpMfaac0e4a-6" value="1" style="resizable=0;html=1;align=right;verticalAlign=bottom;" connectable="0" vertex="1" parent="IRb0_hJA0BpMfaac0e4a-5">
          <mxGeometry x="1" relative="1" as="geometry">
            <mxPoint x="8" as="offset" />
          </mxGeometry>
        </mxCell>
        <mxCell id="IRb0_hJA0BpMfaac0e4a-7" value="" style="endArrow=none;html=1;rounded=0;" edge="1" parent="1">
          <mxGeometry relative="1" as="geometry">
            <mxPoint x="50" y="290" as="sourcePoint" />
            <mxPoint x="210" y="290" as="targetPoint" />
          </mxGeometry>
        </mxCell>
        <mxCell id="IRb0_hJA0BpMfaac0e4a-8" value="N" style="resizable=0;html=1;align=right;verticalAlign=bottom;" connectable="0" vertex="1" parent="IRb0_hJA0BpMfaac0e4a-7">
          <mxGeometry x="1" relative="1" as="geometry" />
        </mxCell>
        <mxCell id="IRb0_hJA0BpMfaac0e4a-9" value="" style="verticalLabelPosition=bottom;verticalAlign=top;html=1;shape=mxgraph.basic.acute_triangle;dx=0.5;" vertex="1" parent="1">
          <mxGeometry x="80" y="345" width="40" height="30" as="geometry" />
        </mxCell>
        <mxCell id="IRb0_hJA0BpMfaac0e4a-10" value="Estacionamento" style="whiteSpace=wrap;html=1;align=center;" vertex="1" parent="1">
          <mxGeometry x="330" y="20" width="100" height="40" as="geometry" />
        </mxCell>
        <mxCell id="IRb0_hJA0BpMfaac0e4a-48" value="" style="edgeStyle=none;rounded=0;orthogonalLoop=1;jettySize=auto;html=1;endArrow=none;endFill=0;" edge="1" parent="1" source="IRb0_hJA0BpMfaac0e4a-11" target="IRb0_hJA0BpMfaac0e4a-46">
          <mxGeometry relative="1" as="geometry" />
        </mxCell>
        <mxCell id="IRb0_hJA0BpMfaac0e4a-11" value="Cliente" style="whiteSpace=wrap;html=1;align=center;" vertex="1" parent="1">
          <mxGeometry x="610" y="330" width="100" height="40" as="geometry" />
        </mxCell>
        <mxCell id="IRb0_hJA0BpMfaac0e4a-12" value="Vaga" style="whiteSpace=wrap;html=1;align=center;" vertex="1" parent="1">
          <mxGeometry x="610" y="20" width="100" height="40" as="geometry" />
        </mxCell>
        <mxCell id="IRb0_hJA0BpMfaac0e4a-13" value="Comprovante" style="whiteSpace=wrap;html=1;align=center;" vertex="1" parent="1">
          <mxGeometry x="335" y="335" width="100" height="40" as="geometry" />
        </mxCell>
        <mxCell id="IRb0_hJA0BpMfaac0e4a-38" value="" style="edgeStyle=none;rounded=0;orthogonalLoop=1;jettySize=auto;html=1;endArrow=none;endFill=0;" edge="1" parent="1" source="IRb0_hJA0BpMfaac0e4a-14" target="IRb0_hJA0BpMfaac0e4a-37">
          <mxGeometry relative="1" as="geometry" />
        </mxCell>
        <mxCell id="IRb0_hJA0BpMfaac0e4a-14" value="Manobrista" style="whiteSpace=wrap;html=1;align=center;" vertex="1" parent="1">
          <mxGeometry x="330" y="180" width="100" height="40" as="geometry" />
        </mxCell>
        <mxCell id="IRb0_hJA0BpMfaac0e4a-15" value="Carro" style="whiteSpace=wrap;html=1;align=center;" vertex="1" parent="1">
          <mxGeometry x="610" y="180" width="100" height="40" as="geometry" />
        </mxCell>
        <mxCell id="IRb0_hJA0BpMfaac0e4a-16" value="aluga" style="shape=rhombus;perimeter=rhombusPerimeter;whiteSpace=wrap;html=1;align=center;" vertex="1" parent="1">
          <mxGeometry x="470" y="15" width="100" height="50" as="geometry" />
        </mxCell>
        <mxCell id="IRb0_hJA0BpMfaac0e4a-20" value="" style="endArrow=none;html=1;rounded=0;entryX=1;entryY=0.5;entryDx=0;entryDy=0;exitX=0;exitY=0.5;exitDx=0;exitDy=0;" edge="1" parent="1" source="IRb0_hJA0BpMfaac0e4a-16" target="IRb0_hJA0BpMfaac0e4a-10">
          <mxGeometry relative="1" as="geometry">
            <mxPoint x="600" y="39.760000000000005" as="sourcePoint" />
            <mxPoint x="440" y="39.760000000000005" as="targetPoint" />
          </mxGeometry>
        </mxCell>
        <mxCell id="IRb0_hJA0BpMfaac0e4a-21" value="1" style="resizable=0;html=1;align=right;verticalAlign=bottom;" connectable="0" vertex="1" parent="IRb0_hJA0BpMfaac0e4a-20">
          <mxGeometry x="1" relative="1" as="geometry">
            <mxPoint x="10" as="offset" />
          </mxGeometry>
        </mxCell>
        <mxCell id="IRb0_hJA0BpMfaac0e4a-22" value="" style="endArrow=none;html=1;rounded=0;exitX=1;exitY=0.5;exitDx=0;exitDy=0;" edge="1" parent="1" source="IRb0_hJA0BpMfaac0e4a-16">
          <mxGeometry relative="1" as="geometry">
            <mxPoint x="580" y="39.75999999999999" as="sourcePoint" />
            <mxPoint x="610" y="40" as="targetPoint" />
          </mxGeometry>
        </mxCell>
        <mxCell id="IRb0_hJA0BpMfaac0e4a-23" value="N" style="resizable=0;html=1;align=right;verticalAlign=bottom;" connectable="0" vertex="1" parent="IRb0_hJA0BpMfaac0e4a-22">
          <mxGeometry x="1" relative="1" as="geometry" />
        </mxCell>
        <mxCell id="IRb0_hJA0BpMfaac0e4a-24" value="ocupa" style="shape=rhombus;perimeter=rhombusPerimeter;whiteSpace=wrap;html=1;align=center;" vertex="1" parent="1">
          <mxGeometry x="615" y="90" width="90" height="50" as="geometry" />
        </mxCell>
        <mxCell id="IRb0_hJA0BpMfaac0e4a-25" value="" style="endArrow=none;html=1;rounded=0;entryX=0.502;entryY=1.09;entryDx=0;entryDy=0;entryPerimeter=0;exitX=0.5;exitY=0;exitDx=0;exitDy=0;" edge="1" parent="1" source="IRb0_hJA0BpMfaac0e4a-24" target="IRb0_hJA0BpMfaac0e4a-12">
          <mxGeometry relative="1" as="geometry">
            <mxPoint x="900" y="90" as="sourcePoint" />
            <mxPoint x="740" y="90" as="targetPoint" />
          </mxGeometry>
        </mxCell>
        <mxCell id="IRb0_hJA0BpMfaac0e4a-26" value="1" style="resizable=0;html=1;align=right;verticalAlign=bottom;" connectable="0" vertex="1" parent="IRb0_hJA0BpMfaac0e4a-25">
          <mxGeometry x="1" relative="1" as="geometry">
            <mxPoint x="-5" y="16" as="offset" />
          </mxGeometry>
        </mxCell>
        <mxCell id="IRb0_hJA0BpMfaac0e4a-27" value="" style="endArrow=none;html=1;rounded=0;" edge="1" parent="1">
          <mxGeometry relative="1" as="geometry">
            <mxPoint x="50" y="250" as="sourcePoint" />
            <mxPoint x="210" y="250" as="targetPoint" />
          </mxGeometry>
        </mxCell>
        <mxCell id="IRb0_hJA0BpMfaac0e4a-28" value="1" style="resizable=0;html=1;align=right;verticalAlign=bottom;" connectable="0" vertex="1" parent="IRb0_hJA0BpMfaac0e4a-27">
          <mxGeometry x="1" relative="1" as="geometry" />
        </mxCell>
        <mxCell id="IRb0_hJA0BpMfaac0e4a-29" value="" style="endArrow=none;html=1;rounded=0;" edge="1" parent="1">
          <mxGeometry relative="1" as="geometry">
            <mxPoint x="210" y="310" as="sourcePoint" />
            <mxPoint x="50" y="310" as="targetPoint" />
          </mxGeometry>
        </mxCell>
        <mxCell id="IRb0_hJA0BpMfaac0e4a-30" value="N" style="resizable=0;html=1;align=right;verticalAlign=bottom;" connectable="0" vertex="1" parent="IRb0_hJA0BpMfaac0e4a-29">
          <mxGeometry x="1" relative="1" as="geometry">
            <mxPoint x="9" as="offset" />
          </mxGeometry>
        </mxCell>
        <mxCell id="IRb0_hJA0BpMfaac0e4a-31" value="" style="endArrow=none;html=1;rounded=0;exitX=0.5;exitY=1;exitDx=0;exitDy=0;entryX=0.5;entryY=0;entryDx=0;entryDy=0;" edge="1" parent="1" source="IRb0_hJA0BpMfaac0e4a-24" target="IRb0_hJA0BpMfaac0e4a-15">
          <mxGeometry relative="1" as="geometry">
            <mxPoint x="545" y="160" as="sourcePoint" />
            <mxPoint x="705" y="160" as="targetPoint" />
          </mxGeometry>
        </mxCell>
        <mxCell id="IRb0_hJA0BpMfaac0e4a-32" value="1" style="resizable=0;html=1;align=right;verticalAlign=bottom;" connectable="0" vertex="1" parent="IRb0_hJA0BpMfaac0e4a-31">
          <mxGeometry x="1" relative="1" as="geometry" />
        </mxCell>
        <mxCell id="IRb0_hJA0BpMfaac0e4a-35" style="edgeStyle=orthogonalEdgeStyle;rounded=0;orthogonalLoop=1;jettySize=auto;html=1;entryX=0.5;entryY=1;entryDx=0;entryDy=0;endArrow=none;endFill=0;" edge="1" parent="1" source="IRb0_hJA0BpMfaac0e4a-33" target="IRb0_hJA0BpMfaac0e4a-15">
          <mxGeometry relative="1" as="geometry" />
        </mxCell>
        <mxCell id="IRb0_hJA0BpMfaac0e4a-36" value="" style="rounded=0;orthogonalLoop=1;jettySize=auto;html=1;endArrow=none;endFill=0;" edge="1" parent="1" source="IRb0_hJA0BpMfaac0e4a-33" target="IRb0_hJA0BpMfaac0e4a-11">
          <mxGeometry relative="1" as="geometry" />
        </mxCell>
        <mxCell id="IRb0_hJA0BpMfaac0e4a-33" value="possui" style="shape=rhombus;perimeter=rhombusPerimeter;whiteSpace=wrap;html=1;align=center;" vertex="1" parent="1">
          <mxGeometry x="620" y="250" width="80" height="50" as="geometry" />
        </mxCell>
        <mxCell id="IRb0_hJA0BpMfaac0e4a-39" value="" style="edgeStyle=none;rounded=0;orthogonalLoop=1;jettySize=auto;html=1;endArrow=none;endFill=0;" edge="1" parent="1" source="IRb0_hJA0BpMfaac0e4a-37" target="IRb0_hJA0BpMfaac0e4a-13">
          <mxGeometry relative="1" as="geometry" />
        </mxCell>
        <mxCell id="IRb0_hJA0BpMfaac0e4a-37" value="registra" style="shape=rhombus;perimeter=rhombusPerimeter;whiteSpace=wrap;html=1;align=center;" vertex="1" parent="1">
          <mxGeometry x="340" y="250" width="80" height="50" as="geometry" />
        </mxCell>
        <mxCell id="IRb0_hJA0BpMfaac0e4a-41" value="" style="edgeStyle=none;rounded=0;orthogonalLoop=1;jettySize=auto;html=1;endArrow=none;endFill=0;" edge="1" parent="1" source="IRb0_hJA0BpMfaac0e4a-40" target="IRb0_hJA0BpMfaac0e4a-13">
          <mxGeometry relative="1" as="geometry" />
        </mxCell>
        <mxCell id="IRb0_hJA0BpMfaac0e4a-42" value="" style="edgeStyle=none;rounded=0;orthogonalLoop=1;jettySize=auto;html=1;endArrow=none;endFill=0;" edge="1" parent="1" source="IRb0_hJA0BpMfaac0e4a-40" target="IRb0_hJA0BpMfaac0e4a-11">
          <mxGeometry relative="1" as="geometry" />
        </mxCell>
        <mxCell id="IRb0_hJA0BpMfaac0e4a-40" value="entregue" style="shape=rhombus;perimeter=rhombusPerimeter;whiteSpace=wrap;html=1;align=center;" vertex="1" parent="1">
          <mxGeometry x="490" y="325" width="80" height="50" as="geometry" />
        </mxCell>
        <mxCell id="IRb0_hJA0BpMfaac0e4a-44" style="edgeStyle=none;rounded=0;orthogonalLoop=1;jettySize=auto;html=1;entryX=1.033;entryY=0.46;entryDx=0;entryDy=0;entryPerimeter=0;endArrow=none;endFill=0;exitX=0;exitY=0.5;exitDx=0;exitDy=0;" edge="1" parent="1" source="IRb0_hJA0BpMfaac0e4a-43" target="IRb0_hJA0BpMfaac0e4a-14">
          <mxGeometry relative="1" as="geometry" />
        </mxCell>
        <mxCell id="IRb0_hJA0BpMfaac0e4a-45" style="edgeStyle=none;rounded=0;orthogonalLoop=1;jettySize=auto;html=1;endArrow=none;endFill=0;entryX=0;entryY=0.5;entryDx=0;entryDy=0;" edge="1" parent="1" source="IRb0_hJA0BpMfaac0e4a-43" target="IRb0_hJA0BpMfaac0e4a-15">
          <mxGeometry relative="1" as="geometry">
            <mxPoint x="590" y="200" as="targetPoint" />
          </mxGeometry>
        </mxCell>
        <mxCell id="IRb0_hJA0BpMfaac0e4a-43" value="estaciona" style="shape=rhombus;perimeter=rhombusPerimeter;whiteSpace=wrap;html=1;align=center;" vertex="1" parent="1">
          <mxGeometry x="480" y="175" width="80" height="50" as="geometry" />
        </mxCell>
        <mxCell id="IRb0_hJA0BpMfaac0e4a-46" value="" style="verticalLabelPosition=bottom;verticalAlign=top;html=1;shape=mxgraph.basic.acute_triangle;dx=0.5;" vertex="1" parent="1">
          <mxGeometry x="640" y="400" width="40" height="30" as="geometry" />
        </mxCell>
        <mxCell id="IRb0_hJA0BpMfaac0e4a-51" style="edgeStyle=none;rounded=0;orthogonalLoop=1;jettySize=auto;html=1;entryX=0;entryY=1;entryDx=0;entryDy=0;entryPerimeter=0;endArrow=none;endFill=0;" edge="1" parent="1" source="IRb0_hJA0BpMfaac0e4a-49" target="IRb0_hJA0BpMfaac0e4a-46">
          <mxGeometry relative="1" as="geometry" />
        </mxCell>
        <mxCell id="IRb0_hJA0BpMfaac0e4a-49" value="Avulso" style="whiteSpace=wrap;html=1;align=center;" vertex="1" parent="1">
          <mxGeometry x="540" y="450" width="100" height="40" as="geometry" />
        </mxCell>
        <mxCell id="IRb0_hJA0BpMfaac0e4a-52" style="edgeStyle=none;rounded=0;orthogonalLoop=1;jettySize=auto;html=1;entryX=1;entryY=1;entryDx=0;entryDy=0;entryPerimeter=0;endArrow=none;endFill=0;" edge="1" parent="1" source="IRb0_hJA0BpMfaac0e4a-50" target="IRb0_hJA0BpMfaac0e4a-46">
          <mxGeometry relative="1" as="geometry" />
        </mxCell>
        <mxCell id="IRb0_hJA0BpMfaac0e4a-50" value="Mensalista" style="whiteSpace=wrap;html=1;align=center;" vertex="1" parent="1">
          <mxGeometry x="680" y="450" width="100" height="40" as="geometry" />
        </mxCell>
        <mxCell id="IRb0_hJA0BpMfaac0e4a-54" value="Attribute" style="ellipse;whiteSpace=wrap;html=1;align=left;spacingLeft=20;fontStyle=4" vertex="1" parent="1">
          <mxGeometry x="150" y="375" width="20" height="15" as="geometry" />
        </mxCell>
        <mxCell id="IRb0_hJA0BpMfaac0e4a-55" value="Attribute" style="ellipse;whiteSpace=wrap;html=1;align=left;spacingLeft=20;fontStyle=0;" vertex="1" parent="1">
          <mxGeometry x="150" y="407.5" width="20" height="15" as="geometry" />
        </mxCell>
        <mxCell id="IRb0_hJA0BpMfaac0e4a-57" value="Attribute" style="ellipse;shape=doubleEllipse;margin=3;whiteSpace=wrap;html=1;align=left;sketch=0;spacingLeft=30;" vertex="1" parent="1">
          <mxGeometry x="145" y="430" width="30" height="20" as="geometry" />
        </mxCell>
        <mxCell id="IRb0_hJA0BpMfaac0e4a-59" style="edgeStyle=none;rounded=0;orthogonalLoop=1;jettySize=auto;html=1;entryX=0.199;entryY=1.011;entryDx=0;entryDy=0;entryPerimeter=0;endArrow=none;endFill=0;" edge="1" parent="1" source="IRb0_hJA0BpMfaac0e4a-58" target="IRb0_hJA0BpMfaac0e4a-50">
          <mxGeometry relative="1" as="geometry" />
        </mxCell>
        <mxCell id="IRb0_hJA0BpMfaac0e4a-58" value="Nome" style="ellipse;whiteSpace=wrap;html=1;align=left;spacingLeft=20;" vertex="1" parent="1">
          <mxGeometry x="690" y="520" width="20" height="15" as="geometry" />
        </mxCell>
        <mxCell id="IRb0_hJA0BpMfaac0e4a-61" value="" style="edgeStyle=none;rounded=0;orthogonalLoop=1;jettySize=auto;html=1;endArrow=none;endFill=0;" edge="1" parent="1" source="IRb0_hJA0BpMfaac0e4a-60" target="IRb0_hJA0BpMfaac0e4a-50">
          <mxGeometry relative="1" as="geometry" />
        </mxCell>
        <mxCell id="IRb0_hJA0BpMfaac0e4a-60" value="Valor Mensal" style="ellipse;whiteSpace=wrap;html=1;align=left;spacingLeft=20;" vertex="1" parent="1">
          <mxGeometry x="720" y="505" width="20" height="15" as="geometry" />
        </mxCell>
        <mxCell id="IRb0_hJA0BpMfaac0e4a-66" value="" style="edgeStyle=none;rounded=0;orthogonalLoop=1;jettySize=auto;html=1;endArrow=none;endFill=0;" edge="1" parent="1" source="IRb0_hJA0BpMfaac0e4a-62" target="IRb0_hJA0BpMfaac0e4a-15">
          <mxGeometry relative="1" as="geometry" />
        </mxCell>
        <mxCell id="IRb0_hJA0BpMfaac0e4a-62" value="Cor" style="ellipse;whiteSpace=wrap;html=1;align=left;spacingLeft=20;" vertex="1" parent="1">
          <mxGeometry x="730" y="192.5" width="20" height="15" as="geometry" />
        </mxCell>
        <mxCell id="IRb0_hJA0BpMfaac0e4a-68" style="edgeStyle=none;rounded=0;orthogonalLoop=1;jettySize=auto;html=1;entryX=1;entryY=0.75;entryDx=0;entryDy=0;endArrow=none;endFill=0;" edge="1" parent="1" source="IRb0_hJA0BpMfaac0e4a-63" target="IRb0_hJA0BpMfaac0e4a-15">
          <mxGeometry relative="1" as="geometry" />
        </mxCell>
        <mxCell id="IRb0_hJA0BpMfaac0e4a-63" value="&lt;u&gt;Placa&lt;/u&gt;" style="ellipse;whiteSpace=wrap;html=1;align=left;spacingLeft=20;" vertex="1" parent="1">
          <mxGeometry x="730" y="210" width="20" height="15" as="geometry" />
        </mxCell>
        <mxCell id="IRb0_hJA0BpMfaac0e4a-65" value="" style="edgeStyle=none;rounded=0;orthogonalLoop=1;jettySize=auto;html=1;endArrow=none;endFill=0;" edge="1" parent="1" source="IRb0_hJA0BpMfaac0e4a-64" target="IRb0_hJA0BpMfaac0e4a-15">
          <mxGeometry relative="1" as="geometry" />
        </mxCell>
        <mxCell id="IRb0_hJA0BpMfaac0e4a-64" value="Marca" style="ellipse;whiteSpace=wrap;html=1;align=left;spacingLeft=20;" vertex="1" parent="1">
          <mxGeometry x="730" y="175" width="20" height="15" as="geometry" />
        </mxCell>
        <mxCell id="IRb0_hJA0BpMfaac0e4a-73" style="edgeStyle=none;rounded=0;orthogonalLoop=1;jettySize=auto;html=1;entryX=1;entryY=0.75;entryDx=0;entryDy=0;endArrow=none;endFill=0;" edge="1" parent="1" source="IRb0_hJA0BpMfaac0e4a-69" target="IRb0_hJA0BpMfaac0e4a-12">
          <mxGeometry relative="1" as="geometry" />
        </mxCell>
        <mxCell id="IRb0_hJA0BpMfaac0e4a-69" value="&lt;u&gt;Identificador&lt;/u&gt;" style="ellipse;whiteSpace=wrap;html=1;align=left;spacingLeft=20;" vertex="1" parent="1">
          <mxGeometry x="720" y="45" width="20" height="15" as="geometry" />
        </mxCell>
        <mxCell id="IRb0_hJA0BpMfaac0e4a-71" value="" style="edgeStyle=none;rounded=0;orthogonalLoop=1;jettySize=auto;html=1;endArrow=none;endFill=0;" edge="1" parent="1" source="IRb0_hJA0BpMfaac0e4a-70" target="IRb0_hJA0BpMfaac0e4a-12">
          <mxGeometry relative="1" as="geometry" />
        </mxCell>
        <mxCell id="IRb0_hJA0BpMfaac0e4a-70" value="Status" style="ellipse;whiteSpace=wrap;html=1;align=left;spacingLeft=20;" vertex="1" parent="1">
          <mxGeometry x="720" y="20" width="20" height="15" as="geometry" />
        </mxCell>
      </root>
    </mxGraphModel>
  </diagram>
</mxfile>
